<svg xmlns="http://www.w3.org/2000/svg" width="1024" height="1024" viewBox="0 0 1024 1024">
  <!-- shirt -->
  <path d="M 250 830
           C 310 690, 410 610, 512 610
           C 614 610, 714 690, 774 830
           C 700 900, 610 925, 512 925
           C 414 925, 324 900, 250 830 Z"
        fill="#3285AF"/>

  <!-- collar -->
  <path d="M 380 660
           C 405 600, 455 570, 512 570
           C 569 570, 619 600, 644 660
           C 610 700, 565 720, 512 720
           C 459 720, 414 700, 380 660 Z"
        fill="#206588"/>

  <!-- neck -->
  <path d="M 440 595
           C 440 650, 472 690, 512 690
           C 552 690, 584 650, 584 595
           C 584 560, 552 540, 512 540
           C 472 540, 440 560, 440 595 Z"
        fill="#FFB044"/>

  <!-- ears -->
  <circle cx="350" cy="465" r="30" fill="#FFB044"/>
  <circle cx="674" cy="465" r="30" fill="#FFB044"/>

  <!-- face -->
  <ellipse cx="512" cy="485" rx="165" ry="185" fill="#FFD28C"/>

  <!-- hair with ridge on left side -->
  <path d="M 347 485
           C 347 310, 390 280, 420 268
           L 450 248
           L 490 268
           C 590 260, 677 310, 677 485
           C 677 400, 625 340, 512 340
           C 399 340, 347 400, 347 485 Z"
        fill="#5D4037"/>

  <!-- eyes -->
  <circle cx="438" cy="470" r="25" fill="#6B3E1C"/>
  <circle cx="586" cy="470" r="25" fill="#6B3E1C"/>
</svg>
