<?xml version="1.0" encoding="UTF-8" standalone="no" ?>
<!DOCTYPE svg PUBLIC "-//W3C//DTD SVG 1.1//EN" "http://www.w3.org/Graphics/SVG/1.1/DTD/svg11.dtd">
<svg xmlns="http://www.w3.org/2000/svg" xmlns:xlink="http://www.w3.org/1999/xlink" version="1.1" width="1080" height="1080" viewBox="0 0 1080 1080" xml:space="preserve">
<desc>Created with Fabric.js 5.2.4</desc>
<defs>
</defs>
<g transform="matrix(1 0 0 1 540 540)" id="6ab9d782-7d7b-48c6-a4d5-7975dd771da0"  >
<rect style="stroke: none; stroke-width: 1; stroke-dasharray: none; stroke-linecap: butt; stroke-dashoffset: 0; stroke-linejoin: miter; stroke-miterlimit: 4; fill: rgb(255,255,255); fill-rule: nonzero; opacity: 1; visibility: hidden;" vector-effect="non-scaling-stroke"  x="-540" y="-540" rx="0" ry="0" width="1080" height="1080" />
</g>
<g transform="matrix(1 0 0 1 540 540)" id="56ebe68d-2f92-4036-b2f0-2d4a8c0def27"  >
</g>
<g transform="matrix(1 0 0 1 540 540)"  >
<g style="" vector-effect="non-scaling-stroke"   >
		<g transform="matrix(16.67 0 0 16.67 0 0)"  >
<path style="stroke: none; stroke-width: 1; stroke-dasharray: none; stroke-linecap: butt; stroke-dashoffset: 0; stroke-linejoin: miter; stroke-miterlimit: 4; fill: none; fill-rule: nonzero; opacity: 1;" vector-effect="non-scaling-stroke"  transform=" translate(-24, -24)" d="M 0 0 L 48 0 L 48 48 L 0 48 z" stroke-linecap="round" />
</g>
		<g transform="matrix(16.67 0 0 16.67 -66.67 -200)"  >
<path style="stroke: none; stroke-width: 1; stroke-dasharray: none; stroke-linecap: butt; stroke-dashoffset: 0; stroke-linejoin: miter; stroke-miterlimit: 4; fill: rgb(0,0,0); fill-rule: nonzero; opacity: 1;" vector-effect="non-scaling-stroke"  transform=" translate(-20, -12)" d="M 20 20 C 24.411 20 28 16.411 28 12 C 28 7.588999999999999 24.411 4 20 4 C 15.588999999999999 4 12 7.589 12 12 C 12 16.411 15.589 20 20 20 z M 20 8 C 22.206 8 24 9.794 24 12 C 24 14.206 22.206 16 20 16 C 17.794 16 16 14.206 16 12 C 16 9.794 17.794 8 20 8 z" stroke-linecap="round" />
</g>
		<g transform="matrix(16.67 0 0 16.67 1.78 152.1)"  >
<polygon style="stroke: none; stroke-width: 1; stroke-dasharray: none; stroke-linecap: butt; stroke-dashoffset: 0; stroke-linejoin: miter; stroke-miterlimit: 4; fill: rgb(0,0,0); fill-rule: nonzero; opacity: 1;" vector-effect="non-scaling-stroke"  points="16.27,-10.29 6.86,2.87 -14.94,2.87 -19.52,7.46 -16.69,10.29 -13.28,6.87 8.06,6.87 11.48,10.29 14.31,7.46 10.92,4.07 19.52,-7.96 " />
</g>
		<g transform="matrix(16.67 0 0 16.67 216.67 -116.66)"  >
<path style="stroke: none; stroke-width: 1; stroke-dasharray: none; stroke-linecap: butt; stroke-dashoffset: 0; stroke-linejoin: miter; stroke-miterlimit: 4; fill: rgb(0,0,0); fill-rule: nonzero; opacity: 1;" vector-effect="non-scaling-stroke"  transform=" translate(-37, -17)" d="M 35.291 19.466 C 35.799 19.818 36.388999999999996 20.001 36.992999999999995 20.001 C 37.172999999999995 20.001 37.355 19.984 37.535999999999994 19.952 C 38.32299999999999 19.808000000000003 39.007999999999996 19.368000000000002 39.46399999999999 18.711000000000002 C 40.407999999999994 17.354000000000003 40.06999999999999 15.481000000000002 38.70899999999999 14.533000000000001 C 38.04899999999999 14.077000000000002 37.252999999999986 13.907000000000002 36.46399999999999 14.048000000000002 C 35.675999999999995 14.192000000000002 34.989999999999995 14.633000000000003 34.53399999999999 15.292000000000002 C 33.592 16.652 33.932 18.524 35.291 19.466 z" stroke-linecap="round" />
</g>
		<g transform="matrix(16.67 0 0 16.67 -52.32 47.69)"  >
<path style="stroke: none; stroke-width: 1; stroke-dasharray: none; stroke-linecap: butt; stroke-dashoffset: 0; stroke-linejoin: miter; stroke-miterlimit: 4; fill: rgb(0,0,0); fill-rule: nonzero; opacity: 1;" vector-effect="non-scaling-stroke"  transform=" translate(-20.86, -26.86)" d="M 17 28.288 L 24.735 32.585 C 24.983 32.905 25.265 33.2 25.607 33.437 C 26.3 33.916999999999994 27.094 34.147999999999996 27.88 34.147999999999996 C 29.148 34.147999999999996 30.397 33.547 31.173 32.428999999999995 L 35.730999999999995 25.852999999999994 C 36.337999999999994 24.976999999999993 36.56699999999999 23.914999999999996 36.376999999999995 22.861999999999995 C 36.18599999999999 21.807999999999996 35.59799999999999 20.893999999999995 34.723 20.287999999999997 C 33.846 19.680999999999997 32.784 19.447999999999997 31.730999999999998 19.641999999999996 C 30.677999999999997 19.832999999999995 29.764 20.419999999999995 29.156999999999996 21.295999999999996 L 24.598999999999997 27.871999999999996 C 24.588999999999995 27.886999999999997 24.583 27.903999999999996 24.572999999999997 27.918999999999997 L 17 23.712 L 5.28 30.223 L 7.223000000000001 33.72 L 17 28.288 z" stroke-linecap="round" />
</g>
</g>
</g>
</svg>